<?xml version="1.0" encoding="utf-8"?>
<!-- Generator: Adobe Illustrator 26.0.1, SVG Export Plug-In . SVG Version: 6.00 Build 0)  -->
<svg version="1.1" id="Layer_1" xmlns="http://www.w3.org/2000/svg" xmlns:xlink="http://www.w3.org/1999/xlink" x="0px" y="0px"
	 viewBox="0 0 512 512" style="enable-background:new 0 0 512 512;" xml:space="preserve">
<style type="text/css">
	.st0{fill:#FFBF00;}
	.st1{fill:#007C82;}
</style>
<g>
	<path class="st0" d="M293.05,316.05c0.78-18.26,10.05-28.84,10.05-28.84c5.61,3.59,11.21,5.61,11.21,5.61s19.84,6.33,44,4.6
		c24.16-1.73,48.45-19.41,48.45-19.41c-41.27,6.61-60.24-10.5-60.24-10.5s28.32,5.9,61.97-5.32c33.64-11.21,47.74-52.77,47.74-52.77
		c-31.63,25.16-82.39,36.09-82.39,36.09c48.6-24.01,72.32-46.59,85.55-61.25c13.23-14.67,11.5-50.32,11.5-50.32
		c-21.85,44.43-74.33,68.15-74.33,68.15c28.76-22.29,37.38-35.51,37.38-35.51s23.58-26.74,29.76-49.32s-7.76-39.4-7.76-39.4
		c-12.22,55.36-62.69,82.17-62.69,82.17c27.03-22.79,41.41-60.82,41.41-60.82s9.92-28.68,9.49-54.78C443.72,18.33,411.8,0,411.8,0
		c10.21,13.44,9.97,27.6,9.2,41.05c-1.29,22.72-7.42,41.08-14.23,52.34c-15.51,25.6-38.43,39.9-38.43,39.9
		c7.55-9.49,6.25-27.07,6.25-27.07c-6.58,22.97-40.98,41.09-40.98,41.09c6.4,2.62,14.71,10.23,17.85,16.39
		c22.74,44.72-18.49,60.28-18.49,60.28c10.68-10.78,4.1-27.39,4.1-27.39s-3.45,6.47-11.32,13.05s-22.11,4.53-22.11,4.53
		c2.05-12.83-1.62-21.78-1.62-21.78c-3.02,9.49-9.92,15.31-9.92,15.31c1.87-13.73-1.87-28.61-1.87-28.61
		c-3.56-12.62-10.79-20.6-10.86-20.63c0,0,0,0,0,0c4.89-7.15,3.35-15.42,3.31-15.66c0,0,0,0-0.01,0.01
		c-3.96,11.2-15.38,13.14-15.38,13.14c13.52,19.84,11.5,40.69,11.5,40.69c-3.74,21.14-15.96,46.87-15.96,46.87
		c-1.29,9.2,1.58,25.02,1.58,25.02c3.16,24.44,4.24,19.41,4.96,30.12c0.72,10.71,7.46,12.85,7.46,12.85c0,0.99-0.38,1.59-0.72,3.47"
		/>
	<path class="st0" d="M271.39,338.02c-5.02,24.75-5.34,49.38-5.34,49.38v47.88l19.79-43.13c-12.08-13.8-3.59-50.9-3.59-50.9
		c5.75,39.25,12.37,48.02,12.37,48.02l12.37-25.02c-7.17-12.59-10.83-18.9-12.61-24.23"/>
	<path class="st1" d="M260.75,338.02c0.26,1,0.54,2.04,0.83,3.12c0,0,3.56,13.59,4.48,46.26v47.88l-19.61-42.99
		c0,0,11.5-8.48,4.89-50.9c0,0-4.89,36.09-13.08,49.46c0,0-3.74-12.65-12.65-25.88c0,0,8.08-11.06,12.19-25.24"/>
	<path class="st1" d="M239.86,316.05c-2.13-20.95-10.66-28.55-10.66-28.55s-50.04,27.89-103.81-9.49c0,0,37.81,6.33,60.82-10.06
		c0,0-84.26,16.68-109.27-57.94c0,0,18.69,18.69,82.1,36.09c0,0-27.07-10.57-63.41-40.55c-11.85-9.78-26.46-20.49-30.69-39.24
		c-2.07-9.16-3.02-19.4-2.81-30.78c0,0,19.99,40.11,74.48,66.57c0,0-98.56-73.11-59.96-123.65c0,0,6.47,46.01,62.54,82.03
		c0,0-44.43-38.61-50.9-103.52c0,0-3.77-37.53,31.38-56.18c0,0-25.63,38.28,10.46,98.89c6.97,11.7,23.94,25.99,33.93,33.43
		c0,0-7.51-9.92-5.57-26.85c0,0,3.56,20.96,40.51,40.37c0,0-30.05,15.53-23.44,53.06c1.66,9.44,14.95,19.81,24.87,25.02
		c0,0-11.86-11.04-4.53-28.29c0,0,1.19,14.77,14.45,18.01c0,0,14.99,0.86,22.65,3.13c0,0-8.2-3.45-9.92-5.93
		c0,0,16.93,1.51,23.51-3.88c0,0,15.13-4.65,8.2-22.21c-6.76-17.11-40.25-7.06-35.84,0.47c-0.59-0.32-6.22-0.47,1.03-13.73
		c-6.33-2.38,6.27-21.22,20.79-26.42c0,0,3.88-2.48,23.72-5.72c0,0,11.11-1.08,18.55-7.66c0,0,0.53,12.73-17.12,17.4
		c0,0-31.08,1.47-32.06,8.8c0,0,10.03-4.64,22-1.08c0,0-0.43,5.72-16.71,9.81c0,0,15.1,1.94,25.13-3.88c0,0,11.32,14.67-4.14,44.9
		c0,0-5.25,13.98-17.22,21.42c0,0-0.86,13.26,11.54,38.93c0,0,8.23,20.78,8.12,29.67c0,0,1.4,9.08-6.07,12.74
		c0,0-0.51-0.67,0.11,4.11"/>
	<g>
		<path class="st1" d="M377.81,331.33c5.57-7.84,17.39,0.68,11.79,8.43c-23.34,32.65-26.22,40.91-34.15,35.25
			C347.53,369.29,354.52,363.81,377.81,331.33z"/>
		<path class="st1" d="M388.42,348.62c5.65-7.82,17.4,0.67,11.82,8.47c-14.44,20.19-18.46,29.92-26.34,24.32
			C366.06,375.74,373.92,368.9,388.42,348.62z"/>
		<path class="st1" d="M134.44,346.94c7.85-5.68,11.97,4.23,26.34,24.32c5.61,7.85-6.26,16.24-11.79,8.47
			C134.48,359.49,126.58,352.63,134.44,346.94z"/>
		<path class="st1" d="M145.1,329.65c7.82-5.66,10.7,2.51,34.15,35.21c5.53,7.88-6.2,16.26-11.82,8.47
			C143.9,340.44,137.23,335.27,145.1,329.65z"/>
		<path class="st1" d="M280.67,319.55c24.4,1.32,48.66,6.05,72.04,14.2l14.56-20.34c5.62-7.78,17.39,0.64,11.82,8.47
			c-36.67,51.24-37.71,56.88-45.66,51.29c-3.24-2.34-3.98-6.91-1.68-10.15l12.14-16.9c-50.27-16.55-104.51-16.55-154.78,0
			l12.14,16.9c5.56,7.83-6.2,16.25-11.82,8.47c-20.5-28.7-18.14-25.38-35.51-49.62c-5.56-7.83,6.2-16.25,11.82-8.47l14.56,20.34
			c21.37-7.44,43.48-12.03,65.75-13.78l1.07-0.08c11.04-0.82,22.12-0.94,33.17-0.36L280.67,319.55z"/>
	</g>
</g>
<g>
	<g>
		<g>
			<path class="st0" d="M25.38,510.43v-44.98H2.89v-12.44h57.43v12.44H37.82v44.98H25.38z"/>
			<path class="st0" d="M66.14,510.43v-61.41h12.2v15.15h23.13c2.07,0,3.99,0.53,5.74,1.59c1.76,1.06,3.16,2.47,4.23,4.23
				c1.06,1.75,1.6,3.67,1.6,5.74v34.7h-12.2v-34.06H78.34v34.06H66.14z"/>
			<path class="st0" d="M124.92,508.84c-1.75-1.06-3.16-2.47-4.23-4.23c-1.06-1.76-1.59-3.67-1.59-5.74v-23.13
				c0-2.07,0.53-3.99,1.59-5.74c1.06-1.76,2.47-3.16,4.23-4.23c1.75-1.06,3.67-1.59,5.74-1.59h23.77c2.13,0,4.07,0.53,5.82,1.59
				c1.75,1.06,3.15,2.47,4.19,4.23c1.04,1.75,1.56,3.67,1.56,5.74v17.71H131.3v4.79H166v12.2h-35.33
				C128.59,510.43,126.67,509.9,124.92,508.84z M131.3,482.76h22.49v-6.38H131.3V482.76z"/>
			<path class="st1" d="M200.37,510.43v-57.35h45.54c2.18,0,4.16,0.53,5.94,1.6c1.78,1.06,3.22,2.5,4.31,4.31
				c1.09,1.81,1.64,3.78,1.64,5.9v14.83c0,2.13-0.55,4.1-1.64,5.9c-1.09,1.81-2.53,3.24-4.31,4.31c-1.78,1.06-3.76,1.59-5.94,1.59
				l-33.18,0.08v18.82H200.37z M245.27,479.09v-13.64h-32.54v13.64H245.27z M244.96,510.43l-16.67-19.86h16.19l13.24,15.63v4.23
				H244.96z"/>
			<path class="st1" d="M271.59,508.84c-1.75-1.06-3.16-2.47-4.23-4.23c-1.06-1.76-1.59-3.67-1.59-5.74v-23.13
				c0-2.07,0.53-3.99,1.59-5.74c1.06-1.76,2.47-3.16,4.23-4.23c1.75-1.06,3.67-1.59,5.74-1.59h23.77c2.13,0,4.07,0.53,5.82,1.59
				c1.75,1.06,3.15,2.47,4.19,4.23c1.04,1.75,1.56,3.67,1.56,5.74v23.13c0,2.07-0.52,3.99-1.56,5.74c-1.04,1.75-2.43,3.16-4.19,4.23
				c-1.75,1.06-3.7,1.6-5.82,1.6h-23.77C275.26,510.43,273.35,509.9,271.59,508.84z M300.47,498.23v-21.85h-22.49v21.85H300.47z"/>
			<path class="st1" d="M326.79,508.84c-1.75-1.06-3.16-2.47-4.23-4.23c-1.06-1.76-1.59-3.67-1.59-5.74v-23.13
				c0-2.07,0.53-3.99,1.59-5.74c1.06-1.76,2.47-3.16,4.23-4.23c1.75-1.06,3.67-1.59,5.74-1.59h35.25v12.2h-34.61v21.85h34.69v12.2
				h-35.33C330.46,510.43,328.54,509.9,326.79,508.84z"/>
			<path class="st1" d="M402.64,510.43v-57.43h53.04v12.44h-40.52v10.05h32.62v12.44h-32.62v22.49H402.64z"/>
			<path class="st1" d="M459.82,461.3v-12.28h12.2v12.28H459.82z M459.82,510.43v-46.26h12.2v46.26H459.82z"/>
			<path class="st1" d="M485.58,508.84c-1.75-1.06-3.16-2.47-4.23-4.23c-1.06-1.76-1.59-3.67-1.59-5.74v-48.41h12.2v13.72h17.15
				v12.2h-17.15v21.85h17.15v12.2h-17.71C489.28,510.43,487.34,509.9,485.58,508.84z"/>
		</g>
	</g>
</g>
</svg>
